<svg xmlns="http://www.w3.org/2000/svg" viewBox="0 0 48 48" fill="none">
  <rect width="48" height="48" rx="10" fill="#3B6D11"/>
  <g stroke="#EAF3DE" stroke-width="2.5" stroke-linecap="round" stroke-linejoin="round" fill="none">
    <!-- wheat stalk -->
    <path d="M24 40V18"/>
    <!-- grains left -->
    <path d="M24 18c-3-2-5-6-5-10"/>
    <path d="M24 22c-3-1.5-6-4.5-7-8"/>
    <path d="M24 26c-3.5-1-7-3.5-8-7"/>
    <!-- grains right -->
    <path d="M24 18c3-2 5-6 5-10"/>
    <path d="M24 22c3-1.5 6-4.5 7-8"/>
    <path d="M24 26c3.5-1 7-3.5 8-7"/>
    <!-- small leaves -->
    <path d="M20 36l-4-3"/>
    <path d="M28 36l4-3"/>
  </g>
</svg>
